Coordinates
version=1
nRows=17
nColumns=38
inDegrees=no

Units are S.I. units (second, meters, Newtons, ...)
If the header above contains a line with 'inDegrees', this indicates whether rotational values are in degrees (yes) or radians (no).

endheader
time	pelvis_tilt	pelvis_list	pelvis_rotation	pelvis_tx	pelvis_ty	pelvis_tz	hip_flexion_r	hip_adduction_r	hip_rotation_r	knee_angle_r	ankle_angle_r	subtalar_angle_r	mtp_angle_r	hip_flexion_l	hip_adduction_l	hip_rotation_l	knee_angle_l	ankle_angle_l	subtalar_angle_l	mtp_angle_l	lumbar_extension	lumbar_bending	lumbar_rotation	arm_flex_r	arm_add_r	arm_rot_r	elbow_flex_r	pro_sup_r	wrist_flex_r	wrist_dev_r	arm_flex_l	arm_add_l	arm_rot_l	elbow_flex_l	pro_sup_l	wrist_flex_l	wrist_dev_l
110	-2.35797	1.06803	0.832907	0.801434	1.85159	0.94962	0.766777	0.165653	-0.350865	0.138476	-0.251847	0	0	0.210436	-0.515065	-0.488472	0.371105	0.0776319	0	0	0.235473	0.397779	-0.252285	-0.0321679	-0.254287	0.129999	0.414912	1.5708	0	0	-0.13873	-0.247566	0.435462	0.583639	1.25661	0	0
110.01	-2.34714	1.06877	0.831785	0.79999	1.84368	0.948466	0.764242	0.164352	-0.364733	0.157454	-0.254179	0	0	0.203163	-0.520395	-0.490426	0.373643	0.0796914	0	0	0.233259	0.402694	-0.258537	-0.0345174	-0.25546	0.128064	0.421873	1.5708	0	0	-0.142939	-0.247773	0.433673	0.588702	1.25612	0	0
110.02	-2.3154	1.07575	0.814666	0.799173	1.83608	0.948197	0.750328	0.163489	-0.385549	0.175101	-0.259441	0	0	0.185223	-0.526192	-0.481413	0.372238	0.079399	0	0	0.214814	0.411386	-0.265595	-0.0321083	-0.256652	0.126487	0.430823	1.5708	0	0	-0.14216	-0.247894	0.429732	0.595813	1.2587	0	0
110.03	-2.31426	1.07392	0.819002	0.797339	1.8274	0.947081	0.753145	0.162725	-0.394375	0.192311	-0.268652	0	0	0.178037	-0.525827	-0.474224	0.365259	0.0766611	0	0	0.221321	0.415181	-0.268617	-0.0364288	-0.258397	0.129101	0.43295	1.5708	0	0	-0.146202	-0.245516	0.431612	0.594888	1.26114	0	0
110.04	-2.30697	1.075	0.816849	0.795634	1.81892	0.946481	0.753346	0.161641	-0.403965	0.212696	-0.280647	0	0	0.166799	-0.525407	-0.46676	0.359474	0.0724839	0	0	0.220726	0.419971	-0.267657	-0.0391173	-0.260406	0.132411	0.435164	1.5708	0	0	-0.146694	-0.243831	0.436482	0.59357	1.26335	0	0
110.05	-2.51045	1.15763	0.999142	0.791173	1.80814	0.954024	0.749275	0.0610924	-0.343027	0.260166	-0.273086	0	0	0.0917519	-0.344957	-0.363129	0.215534	-0.0114475	0	0	0.207845	0.285097	-0.23053	-0.00343407	-0.21236	0.153568	0.325279	1.5708	0	0	-0.120605	-0.268693	0.523263	0.528988	1.2533	0	0
110.06	-2.51845	1.15398	1.00572	0.786777	1.79928	0.953736	0.756852	0.0659629	-0.33322	0.279196	-0.271566	0	0	0.091303	-0.347383	-0.36126	0.222129	-0.0170145	0	0	0.216346	0.284727	-0.222942	-0.0061387	-0.20743	0.14816	0.318561	1.5708	0	0	-0.124189	-0.271847	0.532886	0.527589	1.24784	0	0
110.07	-2.49826	1.16295	0.990463	0.785375	1.79066	0.954895	0.746242	0.0657164	-0.33899	0.301021	-0.265978	0	0	0.0766332	-0.350027	-0.361781	0.232074	-0.0214301	0	0	0.201688	0.291776	-0.21839	-0.00260959	-0.20851	0.142463	0.317431	1.5708	0	0	-0.119616	-0.269662	0.543304	0.525244	1.24225	0	0
110.08	-2.48567	1.22718	0.971132	0.786115	1.78008	0.963247	0.685817	0.0383472	-0.337792	0.326483	-0.2588	0	0	-0.000465406	-0.310117	-0.360789	0.220771	-0.0521321	0	0	0.125629	0.268732	-0.191743	0.0185627	-0.20426	0.142914	0.29946	1.5708	0	0	-0.0931059	-0.265825	0.574878	0.501175	1.23503	0	0
110.09	-2.45703	1.23624	0.943863	0.78444	1.77159	0.964675	0.671737	0.0430177	-0.329206	0.342219	-0.256591	0	0	-0.0125686	-0.317656	-0.38078	0.243193	-0.0547752	0	0	0.1087	0.276747	-0.183275	0.0242058	-0.206189	0.145918	0.296613	1.5708	0	0	-0.0905995	-0.26281	0.57704	0.502296	1.23147	0	0
110.1	-2.43522	1.23677	0.927773	0.782524	1.76335	0.965329	0.665177	0.0490129	-0.321614	0.354308	-0.254195	0	0	-0.0113419	-0.328677	-0.38086	0.271056	-0.0553767	0	0	0.104697	0.2858	-0.180056	0.0280229	-0.207583	0.152164	0.291947	1.5708	0	0	-0.0911099	-0.26064	0.578134	0.504439	1.22862	0	0
110.11	-2.41968	1.23672	0.919149	0.780465	1.75512	0.965935	0.659692	0.0532161	-0.316903	0.365321	-0.24842	0	0	-0.00574751	-0.338916	-0.375845	0.303206	-0.0573973	0	0	0.103811	0.292359	-0.177933	0.0319454	-0.208242	0.164831	0.285414	1.5708	0	0	-0.092639	-0.259813	0.579472	0.507419	1.22492	0	0
110.12	-2.40587	1.23796	0.914772	0.778533	1.74705	0.966738	0.652828	0.0541996	-0.319176	0.375962	-0.232951	0	0	0.00240603	-0.348185	-0.365146	0.339513	-0.0651706	0	0	0.103098	0.296537	-0.178036	0.0389943	-0.209388	0.197125	0.273949	1.5708	0	0	-0.0928849	-0.261579	0.593632	0.511542	1.1932	0	0
110.13	-2.38754	1.24208	0.909439	0.776995	1.73929	0.968002	0.641474	0.051973	-0.32893	0.38495	-0.222598	0	0	0.0116049	-0.3568	-0.348383	0.380845	-0.071594	0	0	0.0981248	0.299231	-0.179361	0.0453685	-0.209197	0.213495	0.267339	1.5708	0	0	-0.0912888	-0.263166	0.598388	0.515071	1.18886	0	0
110.14	-2.37505	1.24413	0.908351	0.775285	1.73139	0.96917	0.631572	0.0506905	-0.338716	0.391174	-0.212501	0	0	0.0258665	-0.365232	-0.330797	0.427278	-0.0776406	0	0	0.0976222	0.301168	-0.179142	0.0501297	-0.209408	0.231655	0.261335	1.5708	0	0	-0.0908477	-0.265048	0.603973	0.518632	1.18709	0	0
110.15	-2.36712	1.24466	0.910357	0.773341	1.72346	0.970342	0.622302	0.050857	-0.346362	0.393909	-0.202841	0	0	0.0447099	-0.373298	-0.312214	0.478423	-0.0851424	0	0	0.100192	0.302299	-0.177271	0.053905	-0.209573	0.253554	0.255592	1.5708	0	0	-0.0912401	-0.267272	0.609269	0.522408	1.18824	0	0
110.16	-2.36088	1.24412	0.913311	0.771323	1.71565	0.971621	0.612691	0.0525066	-0.351901	0.392908	-0.194663	0	0	0.0674565	-0.381044	-0.292416	0.53362	-0.094495	0	0	0.104231	0.303223	-0.174051	0.0568729	-0.20983	0.273008	0.25167	1.5708	0	0	-0.0915195	-0.269563	0.614261	0.526372	1.19262	0	0
